<svg preserveAspectRatio="none" overflow="visible" style="display: block;" width="16" height="16" viewBox="0 0 16 16" fill="none" xmlns="http://www.w3.org/2000/svg">
<g id="edit">
<mask id="mask0_0_304" style="mask-type:alpha" maskUnits="userSpaceOnUse" x="0" y="0" width="17" height="16">
<rect id="Bounding box" x="0.00016275" width="16" height="16" fill="#D9D9D9"/>
</mask>
<g mask="url(#mask0_0_304)">
<path id="edit_2" d="M3.3335 12.6667H4.2835L10.8002 6.15L9.85016 5.2L3.3335 11.7167V12.6667ZM2.00016 14V11.1667L10.8002 2.38333C10.9335 2.26111 11.0807 2.16667 11.2418 2.1C11.4029 2.03333 11.5724 2 11.7502 2C11.9279 2 12.1002 2.03333 12.2668 2.1C12.4335 2.16667 12.5779 2.26667 12.7002 2.4L13.6168 3.33333C13.7502 3.45556 13.8474 3.6 13.9085 3.76667C13.9696 3.93333 14.0002 4.1 14.0002 4.26667C14.0002 4.44444 13.9696 4.61389 13.9085 4.775C13.8474 4.93611 13.7502 5.08333 13.6168 5.21667L4.8335 14H2.00016ZM10.3168 5.68333L9.85016 5.2L10.8002 6.15L10.3168 5.68333Z" fill="#9CA3AF"/>
</g>
</g>
</svg>
