<svg preserveAspectRatio="none" overflow="visible" style="display: block;" width="24" height="24" viewBox="0 0 24 24" fill="none" xmlns="http://www.w3.org/2000/svg">
<g id="account_box">
<mask id="mask0_0_5896" style="mask-type:alpha" maskUnits="userSpaceOnUse" x="0" y="0" width="24" height="24">
<rect id="Bounding box" width="24" height="24" fill="#D9D9D9"/>
</mask>
<g mask="url(#mask0_0_5896)">
<path id="account_box_2" d="M3.33333 11.9C3.93333 11.3111 4.63056 10.8472 5.425 10.5083C6.21944 10.1694 7.07778 10 8 10C8.92222 10 9.78056 10.1694 10.575 10.5083C11.3694 10.8472 12.0667 11.3111 12.6667 11.9V3.33333H3.33333V11.9ZM9.65 7.98333C10.1056 7.52778 10.3333 6.97778 10.3333 6.33333C10.3333 5.68889 10.1056 5.13889 9.65 4.68333C9.19444 4.22778 8.64444 4 8 4C7.35556 4 6.80556 4.22778 6.35 4.68333C5.89444 5.13889 5.66667 5.68889 5.66667 6.33333C5.66667 6.97778 5.89444 7.52778 6.35 7.98333C6.80556 8.43889 7.35556 8.66667 8 8.66667C8.64444 8.66667 9.19444 8.43889 9.65 7.98333ZM3.33333 14C2.96667 14 2.65278 13.8694 2.39167 13.6083C2.13056 13.3472 2 13.0333 2 12.6667V3.33333C2 2.96667 2.13056 2.65278 2.39167 2.39167C2.65278 2.13056 2.96667 2 3.33333 2H12.6667C13.0333 2 13.3472 2.13056 13.6083 2.39167C13.8694 2.65278 14 2.96667 14 3.33333V12.6667C14 13.0333 13.8694 13.3472 13.6083 13.6083C13.3472 13.8694 13.0333 14 12.6667 14H3.33333ZM4.48333 12.6667H11.5167C11.0278 12.2333 10.475 11.9028 9.85833 11.675C9.24167 11.4472 8.62222 11.3333 8 11.3333C7.37778 11.3333 6.75278 11.4472 6.125 11.675C5.49722 11.9028 4.95 12.2333 4.48333 12.6667ZM7.29167 7.04167C7.09722 6.84722 7 6.61111 7 6.33333C7 6.05556 7.09722 5.81944 7.29167 5.625C7.48611 5.43056 7.72222 5.33333 8 5.33333C8.27778 5.33333 8.51389 5.43056 8.70833 5.625C8.90278 5.81944 9 6.05556 9 6.33333C9 6.61111 8.90278 6.84722 8.70833 7.04167C8.51389 7.23611 8.27778 7.33333 8 7.33333C7.72222 7.33333 7.48611 7.23611 7.29167 7.04167Z" fill="#1B3A6B"/>
</g>
</g>
</svg>
