<svg preserveAspectRatio="none" overflow="visible" style="display: block;" width="19.2954" height="19.2955" viewBox="0 0 19.2954 19.2955" fill="none" xmlns="http://www.w3.org/2000/svg">
<g id="Group">
<path id="Vector" d="M17.1214 8.31033C17.0077 7.66935 16.8114 7.0571 16.546 6.47965L17.4706 4.90916C16.9903 4.11441 16.3902 3.39736 15.693 2.7843L13.9841 3.41718C13.4629 3.0542 12.8943 2.75273 12.2837 2.52774L11.8293 0.763014C11.3845 0.654565 10.9257 0.578086 10.4583 0.536406C9.98806 0.494726 9.52593 0.489466 9.06907 0.517388L8.31033 2.17406C7.66935 2.28777 7.05427 2.48404 6.47682 2.7495L4.90917 1.82485C4.11441 2.30518 3.39735 2.90529 2.78429 3.60251L3.41718 5.3114C3.0542 5.8326 2.75273 6.40115 2.52774 7.01178L0.762612 7.46905C0.654568 7.91134 0.577683 8.36982 0.536407 8.8372C0.494727 9.30742 0.489465 9.76954 0.517387 10.2264L2.17407 10.9851C2.28778 11.6261 2.48403 12.2412 2.74949 12.8187L1.82485 14.3863C2.30518 15.1811 2.90529 15.8981 3.60252 16.5112L5.30857 15.8779C5.82977 16.2409 6.40074 16.5423 7.01178 16.7677L7.46621 18.5325C7.91094 18.6409 8.36698 18.7174 8.8372 18.7591C9.30458 18.8007 9.76954 18.806 10.2264 18.7781L10.9851 17.1214C11.6261 17.0077 12.2384 16.8114 12.8158 16.546L14.3863 17.4706C15.1811 16.9903 15.8981 16.3902 16.5112 15.693L15.8779 13.9865C16.2409 13.4653 16.5423 12.8943 16.7677 12.2833L18.5325 11.8289C18.6409 11.3841 18.7174 10.9281 18.7591 10.4579C18.8007 9.99049 18.806 9.52553 18.7777 9.0711L17.1214 8.31033ZM16.0895 10.2211C15.7731 13.7793 12.6337 16.4064 9.07514 16.0899C5.51696 15.7735 2.88991 12.6337 3.20636 9.07555C3.5228 5.51737 6.66215 2.89031 10.2207 3.20676C13.7789 3.52361 16.406 6.66296 16.0895 10.2211Z" stroke="#6B7280" stroke-miterlimit="10"/>
</g>
</svg>
